<svg width="1277" height="1113" xmlns="http://www.w3.org/2000/svg" xmlns:xlink="http://www.w3.org/1999/xlink" xml:space="preserve" overflow="hidden"><g transform="translate(-1001 -459)"><rect x="1001" y="468" width="1277" height="1104" fill="#D9D9D9"/><text fill="#695C5D" font-family="Calibri,Calibri_MSFontService,sans-serif" font-weight="400" font-size="83" transform="matrix(1 0 0 1 1578.5 562)">LEA</text><rect x="1067.5" y="767.5" width="1145" height="745" stroke="#282223" stroke-width="4.58333" stroke-miterlimit="8" fill="#695C5D"/><text fill="#FFFFFF" font-family="Calibri,Calibri_MSFontService,sans-serif" font-weight="400" font-size="83" transform="matrix(1 0 0 1 1448.54 860)">LEA</text><text fill="#FFFFFF" font-family="Calibri,Calibri_MSFontService,sans-serif" font-weight="400" font-size="83" transform="matrix(1 0 0 1 1589.16 860)">Service</text><rect x="1119" y="909" width="347" height="530" fill="#F2F2F2"/><text fill="#695C5D" font-family="Calibri,Calibri_MSFontService,sans-serif" font-weight="400" font-size="83" transform="matrix(1 0 0 1 1172.06 1201)">Service</text><rect x="1488.5" y="910.5" width="678" height="117" stroke="#695C5D" stroke-width="4.58333" stroke-miterlimit="8" fill="#BFBFBF"/><rect x="1466" y="943" width="678" height="117" stroke="#695C5D" stroke-width="2.29167" stroke-miterlimit="8" stroke-dasharray="18.3333 6.875" fill="#BFBFBF"/><text fill="#695C5D" font-family="Calibri,Calibri_MSFontService,sans-serif" font-weight="400" font-size="83" transform="matrix(1 0 0 1 1614.58 1029)">Parameter</text><text fill="#695C5D" font-family="Calibri,Calibri_MSFontService,sans-serif" font-weight="400" font-size="83" transform="matrix(1 0 0 1 1963 1029)">s</text><rect x="1488.5" y="1100.5" width="678" height="117" stroke="#695C5D" stroke-width="4.58333" stroke-miterlimit="8" fill="#BFBFBF"/><rect x="1466" y="1132" width="678" height="117" stroke="#695C5D" stroke-width="2.29167" stroke-miterlimit="8" stroke-dasharray="18.3333 6.875" fill="#BFBFBF"/><text fill="#695C5D" font-family="Calibri,Calibri_MSFontService,sans-serif" font-weight="400" font-size="83" transform="matrix(1 0 0 1 1572.66 1218)">Repor</text><text fill="#695C5D" font-family="Calibri,Calibri_MSFontService,sans-serif" font-weight="400" font-size="83" transform="matrix(1 0 0 1 1772.89 1218)">t Values</text><rect x="1488.5" y="1290.5" width="678" height="117" stroke="#695C5D" stroke-width="4.58333" stroke-miterlimit="8" fill="#BFBFBF"/><rect x="1466" y="1322" width="678" height="117" stroke="#695C5D" stroke-width="2.29167" stroke-miterlimit="8" stroke-dasharray="18.3333 6.875" fill="#BFBFBF"/><text fill="#695C5D" font-family="Calibri,Calibri_MSFontService,sans-serif" font-weight="400" font-size="83" transform="matrix(1 0 0 1 1559.72 1408)">Process</text><text fill="#695C5D" font-family="Calibri,Calibri_MSFontService,sans-serif" font-weight="400" font-size="83" transform="matrix(1 0 0 1 1832.24 1408)">Values</text><rect x="1067.5" y="610.5" width="1145" height="137" stroke="#282223" stroke-width="4.58333" stroke-miterlimit="8" fill="#695C5D"/><text fill="#FFFFFF" font-family="Calibri,Calibri_MSFontService,sans-serif" font-weight="400" font-size="83" transform="matrix(1 0 0 1 1294.4 703)">LEA</text><text fill="#FFFFFF" font-family="Calibri,Calibri_MSFontService,sans-serif" font-weight="400" font-size="83" transform="matrix(1 0 0 1 1435.01 703)">Operator Screen</text></g></svg>