<svg width="1782" height="1701" xmlns="http://www.w3.org/2000/svg" xmlns:xlink="http://www.w3.org/1999/xlink" xml:space="preserve" overflow="hidden"><defs><clipPath id="clip0"><rect x="1192" y="417" width="1782" height="1701"/></clipPath></defs><g clip-path="url(#clip0)" transform="translate(-1192 -417)"><rect x="1199" y="417" width="1775" height="1701" fill="#FFFFFF"/><rect x="1424" y="663" width="751" height="1455" fill="#D5E8D4"/><rect x="2225" y="663" width="749" height="1065" fill="#D5E8D4"/><rect x="1424" y="417" width="1550" height="246" fill="#D5E8D4"/><text font-family="Calibri,Calibri_MSFontService,sans-serif" font-weight="700" font-size="73" transform="matrix(1 0 0 1 1919.74 512)">Configurable</text><text font-family="Calibri,Calibri_MSFontService,sans-serif" font-weight="700" font-size="73" transform="matrix(1 0 0 1 2324.52 512)">Logi</text><text font-family="Calibri,Calibri_MSFontService,sans-serif" font-weight="700" font-size="73" transform="matrix(1 0 0 1 2447.7 512)">c</text><rect x="1471.5" y="577.5" width="656" height="1495" stroke="#000000" stroke-width="6.875" stroke-miterlimit="8" fill="#F5F5F5"/><text font-family="Calibri,Calibri_MSFontService,sans-serif" font-weight="400" font-size="73" transform="matrix(1 0 0 1 1661.76 663)">Input List</text><rect x="1509" y="712" width="577" height="130" fill="#CECECE"/><text font-family="Calibri,Calibri_MSFontService,sans-serif" font-weight="400" font-size="73" transform="matrix(1 0 0 1 1617.76 802)">LEA.Execute</text><rect x="1509" y="872" width="577" height="130" fill="#CECECE"/><text font-family="Calibri,Calibri_MSFontService,sans-serif" font-weight="400" font-size="73" transform="matrix(1 0 0 1 1528.68 962)">LEA.ProcedureCur</text><path d="M1473.5 1238.5 2129.44 1238.5" stroke="#000000" stroke-width="6.875" stroke-miterlimit="8" stroke-dasharray="27.5 20.625" fill="#F5F5F5" fill-rule="evenodd"/><rect x="1509" y="1030" width="577" height="130" fill="#CECECE"/><text font-family="Calibri,Calibri_MSFontService,sans-serif" font-weight="400" font-size="73" transform="matrix(1 0 0 1 1772.35 1120)">…</text><rect x="1509" y="1310" width="577" height="130" fill="#CECECE"/><text font-family="Calibri,Calibri_MSFontService,sans-serif" font-weight="400" font-size="73" transform="matrix(1 0 0 1 1605.28 1400)">ConfigInput1</text><rect x="1509" y="1469" width="577" height="131" fill="#CECECE"/><text font-family="Calibri,Calibri_MSFontService,sans-serif" font-weight="400" font-size="73" transform="matrix(1 0 0 1 1772.35 1560)">…</text><rect x="2271.5" y="577.5" width="656" height="1077" stroke="#000000" stroke-width="6.875" stroke-miterlimit="8" fill="#F5F5F5"/><text font-family="Calibri,Calibri_MSFontService,sans-serif" font-weight="400" font-size="73" transform="matrix(1 0 0 1 2433.87 663)">Output</text><text font-family="Calibri,Calibri_MSFontService,sans-serif" font-weight="400" font-size="73" transform="matrix(1 0 0 1 2663.61 663)">List</text><rect x="2301" y="712" width="578" height="130" fill="#CECECE"/><text font-family="Calibri,Calibri_MSFontService,sans-serif" font-weight="400" font-size="73" transform="matrix(1 0 0 1 2454.91 802)">LEA.Start</text><rect x="2301" y="872" width="578" height="130" fill="#CECECE"/><text font-family="Calibri,Calibri_MSFontService,sans-serif" font-weight="400" font-size="73" transform="matrix(1 0 0 1 2329.21 962)">LEA.ProcedureSel</text><path d="M2271.5 1238.5 2927.44 1238.5" stroke="#000000" stroke-width="6.875" stroke-miterlimit="8" stroke-dasharray="27.5 20.625" fill="#F5F5F5" fill-rule="evenodd"/><rect x="2301" y="1030" width="578" height="130" fill="#CECECE"/><text font-family="Calibri,Calibri_MSFontService,sans-serif" font-weight="400" font-size="73" transform="matrix(1 0 0 1 2564.86 1120)">…</text><rect x="2301" y="1310" width="578" height="130" fill="#CECECE"/><text font-family="Calibri,Calibri_MSFontService,sans-serif" font-weight="400" font-size="73" transform="matrix(1 0 0 1 2370.29 1400)">ConfigOutput1</text><rect x="2301" y="1469" width="578" height="131" fill="#CECECE"/><text font-family="Calibri,Calibri_MSFontService,sans-serif" font-weight="400" font-size="73" transform="matrix(1 0 0 1 2564.86 1560)">…</text><path d="M1380.5 1230.5C1364.21 1230.5 1351 1218.34 1351 1203.33L1351 995.169C1351 980.164 1337.79 968 1321.5 968 1337.79 968 1351 955.836 1351 940.831L1351 732.669C1351 717.664 1364.21 705.5 1380.5 705.5" stroke="#000000" stroke-width="6.875" stroke-miterlimit="8" fill="none" fill-rule="evenodd"/><path d="M1380.5 1648.5C1364.21 1648.5 1351 1636.34 1351 1621.33L1351 1474.17C1351 1459.16 1337.79 1447 1321.5 1447 1337.79 1447 1351 1434.84 1351 1419.83L1351 1272.67C1351 1257.66 1364.21 1245.5 1380.5 1245.5" stroke="#000000" stroke-width="6.875" stroke-miterlimit="8" fill="none" fill-rule="evenodd"/><text font-family="Calibri,Calibri_MSFontService,sans-serif" font-weight="400" font-size="73" transform="matrix(-1.83697e-16 -1 1 -1.83697e-16 1284.73 1039)">fix</text><text font-family="Calibri,Calibri_MSFontService,sans-serif" font-weight="400" font-size="73" transform="matrix(-1.83697e-16 -1 1 -1.83697e-16 1284.73 970)">ed</text><text font-family="Calibri,Calibri_MSFontService,sans-serif" font-weight="400" font-size="73" transform="matrix(-1.83697e-16 -1 1 -1.83697e-16 1288.51 1605)">configurable</text><path d="M1473.5 1671.5 2129.44 1671.5" stroke="#000000" stroke-width="6.875" stroke-miterlimit="8" stroke-dasharray="27.5 20.625" fill="#F5F5F5" fill-rule="evenodd"/><rect x="1509" y="1733" width="577" height="130" fill="#CECECE"/><text font-family="Calibri,Calibri_MSFontService,sans-serif" font-weight="400" font-size="73" transform="matrix(1 0 0 1 1571.92 1823)">WritableInput1</text><rect x="1509" y="1893" width="577" height="130" fill="#CECECE"/><text font-family="Calibri,Calibri_MSFontService,sans-serif" font-weight="400" font-size="73" transform="matrix(1 0 0 1 1772.35 1983)">…</text><path d="M1380.5 2072.5C1364.21 2072.5 1351 2060.34 1351 2045.33L1351 1903.17C1351 1888.16 1337.79 1876 1321.5 1876 1337.79 1876 1351 1863.84 1351 1848.83L1351 1706.67C1351 1691.66 1364.21 1679.5 1380.5 1679.5" stroke="#000000" stroke-width="6.875" stroke-miterlimit="8" fill="none" fill-rule="evenodd"/><text font-family="Calibri,Calibri_MSFontService,sans-serif" font-weight="400" font-size="73" transform="matrix(-1.83697e-16 -1 1 -1.83697e-16 1283.51 1970)">writable</text></g></svg>