<?xml version="1.0" encoding="UTF-8" standalone="no"?>
<svg
   width="1768"
   height="1000"
   xml:space="preserve"
   overflow="hidden"
   version="1.1"
   id="svg23"
   sodipodi:docname="Einorndung_SAIL.svg"
   inkscape:export-filename="Einorndung_SAIL.pdf"
   inkscape:export-xdpi="96"
   inkscape:export-ydpi="96"
   inkscape:version="1.4.2 (f4327f4, 2025-05-13)"
   xmlns:inkscape="http://www.inkscape.org/namespaces/inkscape"
   xmlns:sodipodi="http://sodipodi.sourceforge.net/DTD/sodipodi-0.dtd"
   xmlns="http://www.w3.org/2000/svg"
   xmlns:svg="http://www.w3.org/2000/svg"><defs
     id="defs23" /><sodipodi:namedview
     id="namedview23"
     pagecolor="#ffffff"
     bordercolor="#000000"
     borderopacity="0.25"
     inkscape:showpageshadow="2"
     inkscape:pageopacity="0.0"
     inkscape:pagecheckerboard="0"
     inkscape:deskcolor="#d1d1d1"
     inkscape:zoom="1.001"
     inkscape:cx="883.61638"
     inkscape:cy="500"
     inkscape:window-width="2400"
     inkscape:window-height="1261"
     inkscape:window-x="-9"
     inkscape:window-y="1"
     inkscape:window-maximized="1"
     inkscape:current-layer="svg23" /><g
     transform="translate(-436 -574)"
     id="g23"><path
       d="M438.5 880.5 2200.33 880.5"
       stroke="#B8234F"
       stroke-width="6.875"
       stroke-miterlimit="8"
       stroke-dasharray="6.875 6.875"
       fill="none"
       fill-rule="evenodd"
       id="path1" /><rect
       x="1565"
       y="841"
       width="445"
       height="77.9997"
       fill="#FFFFFF"
       fill-opacity="0.85098"
       id="rect1" /><text
       fill="#A6A6A6"
       font-family="Calibri,Calibri_MSFontService,sans-serif"
       font-weight="400"
       font-size="64"
       transform="matrix(1 0 0 1 1579.7 901)"
       id="text1">Transportaufrag</text><rect
       x="1153.5"
       y="938.5"
       width="1025"
       height="602"
       stroke="#BFBFBF"
       stroke-width="4.58333"
       stroke-miterlimit="8"
       fill="#F2F2F2"
       id="rect2" /><text
       fill="#352E2E"
       font-family="Calibri,Calibri_MSFontService,sans-serif"
       font-weight="700"
       font-size="83"
       transform="matrix(1 0 0 1 1185.85 1403)"
       id="text2">AGV</text><text
       fill="#352E2E"
       font-family="Calibri,Calibri_MSFontService,sans-serif"
       font-weight="700"
       font-size="83"
       transform="matrix(1 0 0 1 1335.67 1403)"
       id="text3">-</text><text
       fill="#352E2E"
       font-family="Calibri,Calibri_MSFontService,sans-serif"
       font-weight="700"
       font-size="83"
       transform="matrix(1 0 0 1 1185.85 1502)"
       id="text4">System</text><path
       d="M1581.5 1362C1581.5 1314.23 1620 1275.5 1667.5 1275.5 1715 1275.5 1753.5 1314.23 1753.5 1362 1753.5 1409.77 1715 1448.5 1667.5 1448.5 1620 1448.5 1581.5 1409.77 1581.5 1362Z"
       stroke="#1E643F"
       stroke-width="6.875"
       stroke-miterlimit="8"
       fill="#1E643F"
       fill-rule="evenodd"
       id="path4" /><text
       fill="#FFFFFF"
       font-family="Calibri,Calibri_MSFontService,sans-serif"
       font-weight="400"
       font-size="64"
       transform="matrix(1 0 0 1 1610.15 1383)"
       id="text5">AGV</text><rect
       x="1217.5"
       y="973.5"
       width="897"
       height="181"
       stroke="#1E643F"
       stroke-width="6.875"
       stroke-miterlimit="8"
       fill="#278252"
       fill-opacity="0.309804"
       id="rect5" /><text
       fill="#352E2E"
       font-family="Calibri,Calibri_MSFontService,sans-serif"
       font-weight="400"
       font-size="73"
       transform="matrix(1 0 0 1 1428.02 1088)"
       id="text6">Flottenmanager</text><path
       d="M1670.29 1164.14 1671.64 1265.16 1661.32 1265.3 1659.98 1164.28ZM1643.01 1192.84 1665 1153.98 1688.01 1192.25C1689.48 1194.69 1688.69 1197.85 1686.25 1199.32 1683.81 1200.79 1680.64 1200 1679.17 1197.56L1660.72 1166.87 1669.62 1166.75 1651.99 1197.92C1650.59 1200.4 1647.44 1201.27 1644.96 1199.87 1642.48 1198.47 1641.61 1195.32 1643.01 1192.84ZM1688.6 1236.59 1666.62 1275.46 1643.6 1237.19C1642.14 1234.75 1642.93 1231.58 1645.37 1230.11 1647.81 1228.65 1650.97 1229.44 1652.44 1231.88L1670.9 1262.57 1661.99 1262.69 1679.63 1231.51C1681.03 1229.04 1684.17 1228.16 1686.65 1229.57 1689.13 1230.97 1690 1234.11 1688.6 1236.59Z"
       fill="#352E2E"
       id="path6" /><rect
       x="1153"
       y="713"
       width="1025"
       height="117"
       fill="#C5BCBD"
       id="rect6" /><text
       fill="#352E2E"
       font-family="Calibri,Calibri_MSFontService,sans-serif"
       font-weight="400"
       font-size="73"
       transform="matrix(1 0 0 1 1221.94 799)"
       id="text7">Transport</text><text
       fill="#352E2E"
       font-family="Calibri,Calibri_MSFontService,sans-serif"
       font-weight="400"
       font-size="73"
       transform="matrix(1 0 0 1 1506.93 799)"
       id="text8">-</text><text
       fill="#352E2E"
       font-family="Calibri,Calibri_MSFontService,sans-serif"
       font-weight="400"
       font-size="73"
       transform="matrix(1 0 0 1 1529.27 799)"
       id="text9">Management </text><text
       fill="#352E2E"
       font-family="Calibri,Calibri_MSFontService,sans-serif"
       font-weight="700"
       font-size="83"
       transform="matrix(1 0 0 1 1944.48 799)"
       id="text10">(TM)</text><path
       d="M1561.94 853.417 1561.94 950.43 1555.06 950.43 1555.06 853.417ZM1544.75 858 1558.5 830.5 1572.25 858ZM1572.25 945.847 1558.5 973.347 1544.75 945.847Z"
       fill="#A6A6A6"
       id="path10" /><rect
       x="438"
       y="592"
       width="680"
       height="96.9999"
       fill="#5C1227"
       id="rect10" /><text
       fill="#FFFFFF"
       font-family="Calibri,Calibri_MSFontService,sans-serif"
       font-weight="400"
       font-size="73"
       transform="matrix(1 0 0 1 535.723 665)"
       id="text11">SAIL</text><text
       fill="#FFFFFF"
       font-family="Calibri,Calibri_MSFontService,sans-serif"
       font-weight="400"
       font-size="73"
       transform="matrix(1 0 0 1 660.665 665)"
       id="text12">-</text><text
       fill="#FFFFFF"
       font-family="Calibri,Calibri_MSFontService,sans-serif"
       font-weight="400"
       font-size="73"
       transform="matrix(1 0 0 1 683.009 665)"
       id="text13">Funktionen</text><rect
       x="438"
       y="723"
       width="680"
       height="96.9999"
       fill="#8A1A3B"
       id="rect13" /><text
       fill="#FFFFFF"
       font-family="Calibri,Calibri_MSFontService,sans-serif"
       font-weight="400"
       font-size="64"
       transform="matrix(1 0 0 1 475.349 793)"
       id="text14">Transport </text><text
       fill="#FFFFFF"
       font-family="Calibri,Calibri_MSFontService,sans-serif"
       font-weight="400"
       font-size="64"
       transform="matrix(1 0 0 1 739.899 793)"
       id="text15">Coordination</text><rect
       x="438"
       y="938"
       width="680"
       height="96.9999"
       fill="#8A1A3B"
       id="rect15" /><text
       fill="#FFFFFF"
       font-family="Calibri,Calibri_MSFontService,sans-serif"
       font-weight="400"
       font-size="64"
       transform="matrix(1 0 0 1 505.336 1008)"
       id="text16">Ressource </text><text
       fill="#FFFFFF"
       font-family="Calibri,Calibri_MSFontService,sans-serif"
       font-weight="400"
       font-size="64"
       transform="matrix(1 0 0 1 784.002 1008)"
       id="text17">Utilization</text><rect
       x="438"
       y="1057"
       width="680"
       height="96.9999"
       fill="#8A1A3B"
       id="rect17" /><text
       fill="#FFFFFF"
       font-family="Calibri,Calibri_MSFontService,sans-serif"
       font-weight="400"
       font-size="64"
       transform="matrix(1 0 0 1 496.02 1127)"
       id="text18">Mission </text><text
       fill="#FFFFFF"
       font-family="Calibri,Calibri_MSFontService,sans-serif"
       font-weight="400"
       font-size="64"
       transform="matrix(1 0 0 1 713.155 1127)"
       id="text19">management</text><rect
       x="438"
       y="1205"
       width="680"
       height="97.0002"
       fill="#8A1A3B"
       id="rect19" /><text
       fill="#FFFFFF"
       font-family="Calibri,Calibri_MSFontService,sans-serif"
       font-weight="400"
       font-size="64"
       transform="matrix(1 0 0 1 554.561 1275)"
       id="text20">Direction</text><text
       fill="#FFFFFF"
       font-family="Calibri,Calibri_MSFontService,sans-serif"
       font-weight="400"
       font-size="64"
       transform="matrix(1 0 0 1 808.088 1275)"
       id="text21">Control</text><rect
       x="438"
       y="1324"
       width="680"
       height="96.9999"
       fill="#8A1A3B"
       id="rect21" /><text
       fill="#FFFFFF"
       font-family="Calibri,Calibri_MSFontService,sans-serif"
       font-weight="400"
       font-size="64"
       transform="matrix(1 0 0 1 485.444 1394)"
       id="text22">Information Collection</text><rect
       x="438"
       y="1444"
       width="680"
       height="95.9999"
       fill="#8A1A3B"
       id="rect22" /><text
       fill="#FFFFFF"
       font-family="Calibri,Calibri_MSFontService,sans-serif"
       font-weight="400"
       font-size="64"
       transform="matrix(1 0 0 1 583.642 1513)"
       id="text23">Facility Control</text></g></svg>
