<?xml version="1.0" encoding="us-ascii" standalone="no"?><svg xmlns="http://www.w3.org/2000/svg" xmlns:xlink="http://www.w3.org/1999/xlink" contentStyleType="text/css" height="607px" preserveAspectRatio="none" style="width:588px;height:607px;background:#FFFFFF;" version="1.1" viewBox="0 0 588 607" width="588px" zoomAndPan="magnify"><defs/><g><line style="stroke:#8A0808;stroke-width:0.5;stroke-dasharray:5.0,5.0;" x1="138" x2="138" y1="37.6094" y2="571.3438"/><line style="stroke:#8A0808;stroke-width:0.5;stroke-dasharray:5.0,5.0;" x1="414.5" x2="414.5" y1="37.6094" y2="571.3438"/><rect fill="#585858" height="31.6094" rx="2.5" ry="2.5" style="stroke:#8A0808;stroke-width:0.5;" width="41" x="118" y="5"/><text fill="#FFFFFF" font-family="sans-serif" font-size="14" font-weight="bold" lengthAdjust="spacing" textLength="27" x="125" y="26.5332">LOL</text><rect fill="#585858" height="31.6094" rx="2.5" ry="2.5" style="stroke:#8A0808;stroke-width:0.5;" width="41" x="118" y="570.3438"/><text fill="#FFFFFF" font-family="sans-serif" font-size="14" font-weight="bold" lengthAdjust="spacing" textLength="27" x="125" y="591.877">LOL</text><rect fill="#585858" height="31.6094" rx="2.5" ry="2.5" style="stroke:#8A0808;stroke-width:0.5;" width="98" x="365.5" y="5"/><text fill="#FFFFFF" font-family="sans-serif" font-size="14" font-weight="bold" lengthAdjust="spacing" textLength="84" x="372.5" y="26.5332">LEA Service</text><rect fill="#585858" height="31.6094" rx="2.5" ry="2.5" style="stroke:#8A0808;stroke-width:0.5;" width="98" x="365.5" y="570.3438"/><text fill="#FFFFFF" font-family="sans-serif" font-size="14" font-weight="bold" lengthAdjust="spacing" textLength="84" x="372.5" y="591.877">LEA Service</text><path d="M248,52.6094 L248,216.6094 L581,216.6094 L581,62.6094 L571,52.6094 L248,52.6094 " fill="#E6E6E6" style="stroke:#000000;stroke-width:0.5;"/><path d="M571,52.6094 L571,62.6094 L581,62.6094 L571,52.6094 " fill="#E6E6E6" style="stroke:#000000;stroke-width:0.5;"/><text fill="#000000" font-family="sans-serif" font-size="13" lengthAdjust="spacing" textLength="112" x="254" y="71.1045">LogisticsInteraction</text><line style="stroke:#000000;stroke-width:1.0;" x1="249" x2="580" y1="73.9609" y2="73.9609"/><text fill="#000000" font-family="sans-serif" font-size="13" lengthAdjust="spacing" textLength="212" x="254" y="91.4561">LogisticsQuestionID[-1]: No question</text><text fill="#000000" font-family="sans-serif" font-size="13" lengthAdjust="spacing" textLength="312" x="254" y="107.8076">LogisticsQuestionID[3]: ProductParameterUpdatedInfo</text><line style="stroke:#000000;stroke-width:1.0;stroke-dasharray:1.0,2.0;" x1="249" x2="580" y1="114.6641" y2="114.6641"/><text fill="#000000" font-family="sans-serif" font-size="13" lengthAdjust="spacing" textLength="162" x="254" y="132.1592">LogisticsAnswerID[-2]: Error</text><text fill="#000000" font-family="sans-serif" font-size="13" lengthAdjust="spacing" textLength="195" x="254" y="148.5107">LogisticsAnswerID[-1]: No answer</text><text fill="#000000" font-family="sans-serif" font-size="13" lengthAdjust="spacing" textLength="236" x="254" y="164.8623">LogisticsAnswerID[1]: Acknowledgement</text><line style="stroke:#000000;stroke-width:1.0;stroke-dasharray:1.0,2.0;" x1="249" x2="580" y1="171.7188" y2="171.7188"/><text fill="#000000" font-family="sans-serif" font-size="13" lengthAdjust="spacing" textLength="165" x="254" y="189.2139">LogisticsQuestionParam1: ' '</text><text fill="#000000" font-family="sans-serif" font-size="13" lengthAdjust="spacing" textLength="165" x="254" y="205.5654">LogisticsQuestionParam2: ' '</text><line style="stroke:#8A0808;stroke-width:1.0;" x1="139.5" x2="149.5" y1="277.4766" y2="273.4766"/><line style="stroke:#8A0808;stroke-width:1.0;" x1="139.5" x2="149.5" y1="277.4766" y2="281.4766"/><line style="stroke:#8A0808;stroke-width:1.0;" x1="138.5" x2="413.5" y1="277.4766" y2="277.4766"/><text fill="#000000" font-family="sans-serif" font-size="13" lengthAdjust="spacing" textLength="131" x="155.5" y="239.917">LogisticsQuestionID: 3</text><text fill="#000000" font-family="sans-serif" font-size="13" lengthAdjust="spacing" textLength="248" x="155.5" y="256.2686">LogisticsQuestionParam1: 'A' (Array index)</text><text fill="#000000" font-family="sans-serif" font-size="13" lengthAdjust="spacing" textLength="227" x="155.5" y="272.6201">LogisticsQuestionParam2: ' ' (not used)</text><polygon fill="#E6E6E6" points="15,290.4766,263,290.4766,273,318.4766,263,347.4766,15,347.4766,5,318.4766,15,290.4766" style="stroke:#000000;stroke-width:0.5;"/><text fill="#000000" font-family="sans-serif" font-size="13" lengthAdjust="spacing" textLength="244" x="17" y="307.9717">Check whether the modified parameter set</text><text fill="#000000" font-family="sans-serif" font-size="13" lengthAdjust="spacing" textLength="202" x="17" y="324.3232">at array index A should be adopted</text><text fill="#000000" font-family="sans-serif" font-size="13" lengthAdjust="spacing" textLength="201" x="17" y="340.6748">in the LOL parameter management</text><polygon fill="#E6E6E6" points="28,357.5313,248,357.5313,258,369.5313,248,381.5313,28,381.5313,18,369.5313,28,357.5313" style="stroke:#000000;stroke-width:0.5;"/><text fill="#000000" font-family="sans-serif" font-size="13" lengthAdjust="spacing" textLength="216" x="30" y="375.0264">If necessary, adopt the parameter set</text><line style="stroke:#8A0808;stroke-width:1.0;" x1="412.5" x2="402.5" y1="409.2344" y2="405.2344"/><line style="stroke:#8A0808;stroke-width:1.0;" x1="412.5" x2="402.5" y1="409.2344" y2="413.2344"/><line style="stroke:#8A0808;stroke-width:1.0;" x1="138.5" x2="413.5" y1="409.2344" y2="409.2344"/><text fill="#000000" font-family="sans-serif" font-size="13" lengthAdjust="spacing" textLength="252" x="145.5" y="404.3779">LogisticsAnswerID := 1 (Acknowledgement)</text><polygon fill="#E6E6E6" points="305,422.2344,523,422.2344,533,442.2344,523,462.2344,305,462.2344,295,442.2344,305,422.2344" style="stroke:#000000;stroke-width:0.5;"/><text fill="#000000" font-family="sans-serif" font-size="13" lengthAdjust="spacing" textLength="214" x="307" y="439.7295">The LOL has received the information</text><text fill="#000000" font-family="sans-serif" font-size="13" lengthAdjust="spacing" textLength="184" x="307" y="456.0811">about the parameter set change</text><line style="stroke:#8A0808;stroke-width:1.0;" x1="139.5" x2="149.5" y1="522.9922" y2="518.9922"/><line style="stroke:#8A0808;stroke-width:1.0;" x1="139.5" x2="149.5" y1="522.9922" y2="526.9922"/><line style="stroke:#8A0808;stroke-width:1.0;" x1="138.5" x2="413.5" y1="522.9922" y2="522.9922"/><text fill="#000000" font-family="sans-serif" font-size="13" lengthAdjust="spacing" textLength="147" x="155.5" y="485.4326">LogisticsQuestionID := -1</text><text fill="#000000" font-family="sans-serif" font-size="13" lengthAdjust="spacing" textLength="177" x="155.5" y="501.7842">LogisticsQuestionParam1 := ' '</text><text fill="#000000" font-family="sans-serif" font-size="13" lengthAdjust="spacing" textLength="177" x="155.5" y="518.1357">LogisticsQuestionParam2 := ' '</text><line style="stroke:#8A0808;stroke-width:1.0;" x1="412.5" x2="402.5" y1="553.3438" y2="549.3438"/><line style="stroke:#8A0808;stroke-width:1.0;" x1="412.5" x2="402.5" y1="553.3438" y2="557.3438"/><line style="stroke:#8A0808;stroke-width:1.0;" x1="138.5" x2="413.5" y1="553.3438" y2="553.3438"/><text fill="#000000" font-family="sans-serif" font-size="13" lengthAdjust="spacing" textLength="138" x="145.5" y="548.4873">LogisticsAnswerID := -1</text><!--SRC=[ZLDTRzf047o_Nx5A7qXG7M6YLCXA8xc1I4YefMhxahOFnzs2Jy2TStU6HbN_U_QCgUt4gBKb9E_in-pCujPAvzpoBIouMA-iARIyCnjZuSrz-J3c_gOuV2nG2uJVBBNMxAl4KJeO3KPiffOuKne_62lHjZ4svzOheNAkVHVUX5_ok1w5jvboRxHla_pJfAcD3nGNpJc3yc6lbfoy2s-ep-l-SDRlppxD-lqpu0x63r1sWlXLpYI5BsXtIc2LMtrL1KF6IYvcHnyLn6PcfHnrSLFjqNBXbT4iYkhuvm9T24x7twFuPm8V3JnMeSwaAygPMoCBuUTXVwIsttB9FSgfNXfsULcNfThjqOREGwgQa8cs2wp6yZBGaH3mLAorsMzGhd2BshV67DcLVE84Uj0x0GuF86fPsiOOgNrp4ntLIg1ZumIkVkZJiz8UdDDvyYTGMkAlYrEvXz5mJdEXS2Wl6CjgkyOFx2v3iOPzXZwZ0Ft0raYrL2WXFmfD_mdFk0TU3uGKN6QAZOG50fSc9oEOqcK3kgf6xPPhNgaN1CWE2hH9J9UWKQ1pt3wzFRGhExKPDCf9mEZsjaF0etkGl8UO96hxrzx-UAnVAyuPtROb6cf7ouVnYYxBRdbvb7nXYWvI83AkL_Y2sx_C3UoY-AI_0IRNJdfQuV-dGXIpPm00]--></g></svg>