<svg width="3530" height="1688" xmlns="http://www.w3.org/2000/svg" xmlns:xlink="http://www.w3.org/1999/xlink" xml:space="preserve" overflow="hidden"><g transform="translate(-246 -316)"><rect x="1462.5" y="1240.5" width="1746" height="731" stroke="#000000" stroke-width="4.58333" stroke-miterlimit="8" fill="#DEEBF7"/><text font-family="Times New Roman,Times New Roman_MSFontService,sans-serif" font-weight="700" font-size="83" transform="matrix(1 0 0 1 2395.86 1836)">Transportverpackung</text><text font-family="Times New Roman,Times New Roman_MSFontService,sans-serif" font-weight="400" font-size="83" transform="matrix(1 0 0 1 2650.23 1935)">(</text><text font-family="Times New Roman,Times New Roman_MSFontService,sans-serif" font-weight="400" font-size="83" transform="matrix(1 0 0 1 2677.73 1935)">Logistics</text><text font-family="Times New Roman,Times New Roman_MSFontService,sans-serif" font-weight="400" font-size="83" transform="matrix(1 0 0 1 3000.86 1935)">Unit)</text><rect x="285.5" y="1240.5" width="1159" height="731" stroke="#000000" stroke-width="4.58333" stroke-miterlimit="8" fill="#E2F0D9"/><text font-family="Times New Roman,Times New Roman_MSFontService,sans-serif" font-weight="700" font-size="83" transform="matrix(1 0 0 1 1039.04 1737)">Sekundär</text><text font-family="Times New Roman,Times New Roman_MSFontService,sans-serif" font-weight="700" font-size="83" transform="matrix(1 0 0 1 1382.79 1737)">-</text><text font-family="Times New Roman,Times New Roman_MSFontService,sans-serif" font-weight="700" font-size="83" transform="matrix(1 0 0 1 993.208 1836)">verpackung</text><text font-family="Times New Roman,Times New Roman_MSFontService,sans-serif" font-weight="400" font-size="83" transform="matrix(1 0 0 1 995.5 1935)">(Trade Unit)</text><rect x="828.5" y="324.5" width="2380" height="835" stroke="#000000" stroke-width="4.58333" stroke-miterlimit="8" fill="#F2F2F2"/><text font-family="Times New Roman,Times New Roman_MSFontService,sans-serif" font-weight="700" font-size="83" transform="matrix(1 0 0 1 2501.13 421)">Primärverpackung</text><text font-family="Times New Roman,Times New Roman_MSFontService,sans-serif" font-weight="400" font-size="83" transform="matrix(1 0 0 1 2613.42 520)">(Consumer Unit)</text><rect x="871.5" y="663.5" width="487" height="293" stroke="#000000" stroke-width="6.875" stroke-miterlimit="8" fill="#FFFFFF"/><text font-family="Times New Roman,Times New Roman_MSFontService,sans-serif" font-weight="700" font-size="73" transform="matrix(1 0 0 1 896.607 749)">Bereitstellung </text><text font-family="Times New Roman,Times New Roman_MSFontService,sans-serif" font-weight="700" font-size="73" transform="matrix(1 0 0 1 989.259 837)">Primär</text><text font-family="Times New Roman,Times New Roman_MSFontService,sans-serif" font-weight="700" font-size="73" transform="matrix(1 0 0 1 1215.13 837)">-</text><text font-family="Times New Roman,Times New Roman_MSFontService,sans-serif" font-weight="700" font-size="73" transform="matrix(1 0 0 1 929.171 925)">verpackung</text><rect x="1511.5" y="833.5" width="489" height="288" stroke="#000000" stroke-width="6.875" stroke-miterlimit="8" fill="#FFFFFF"/><text font-family="Times New Roman,Times New Roman_MSFontService,sans-serif" font-weight="700" font-size="73" transform="matrix(1 0 0 1 1613.45 960)">Produkt</text><text font-family="Times New Roman,Times New Roman_MSFontService,sans-serif" font-weight="700" font-size="73" transform="matrix(1 0 0 1 1872.79 960)">-</text><text font-family="Times New Roman,Times New Roman_MSFontService,sans-serif" font-weight="700" font-size="73" transform="matrix(1 0 0 1 1604.46 1048)">abfüllung</text><rect x="2065.5" y="837.5" width="490" height="284" stroke="#000000" stroke-width="6.875" stroke-miterlimit="8" fill="#FFFFFF"/><text font-family="Times New Roman,Times New Roman_MSFontService,sans-serif" font-weight="700" font-size="73" transform="matrix(1 0 0 1 2109.4 918)">Verschließen </text><text font-family="Times New Roman,Times New Roman_MSFontService,sans-serif" font-weight="700" font-size="73" transform="matrix(1 0 0 1 2184.75 1006)">Primär</text><text font-family="Times New Roman,Times New Roman_MSFontService,sans-serif" font-weight="700" font-size="73" transform="matrix(1 0 0 1 2410.62 1006)">-</text><text font-family="Times New Roman,Times New Roman_MSFontService,sans-serif" font-weight="700" font-size="73" transform="matrix(1 0 0 1 2124.67 1094)">verpackung</text><rect x="2620.5" y="837.5" width="556" height="284" stroke="#000000" stroke-width="6.875" stroke-miterlimit="8" fill="#FFFFFF"/><text font-family="Times New Roman,Times New Roman_MSFontService,sans-serif" font-weight="700" font-size="73" transform="matrix(1 0 0 1 2653.36 918)">Kennzeichnung </text><text font-family="Times New Roman,Times New Roman_MSFontService,sans-serif" font-weight="700" font-size="73" transform="matrix(1 0 0 1 2772.73 1006)">Primär</text><text font-family="Times New Roman,Times New Roman_MSFontService,sans-serif" font-weight="700" font-size="73" transform="matrix(1 0 0 1 2998.6 1006)">-</text><text font-family="Times New Roman,Times New Roman_MSFontService,sans-serif" font-weight="700" font-size="73" transform="matrix(1 0 0 1 2712.64 1094)">verpackung</text><rect x="1509.5" y="1286.5" width="495" height="286" stroke="#000000" stroke-width="6.875" stroke-miterlimit="8" fill="#FFFFFF"/><text font-family="Times New Roman,Times New Roman_MSFontService,sans-serif" font-weight="700" font-size="73" transform="matrix(1 0 0 1 1562.55 1456)">Palettierung</text><rect x="2063.5" y="1287.5" width="494" height="285" stroke="#000000" stroke-width="6.875" stroke-miterlimit="8" fill="#FFFFFF"/><text font-family="Times New Roman,Times New Roman_MSFontService,sans-serif" font-weight="700" font-size="73" transform="matrix(1 0 0 1 2161.17 1413)">Ladungs</text><text font-family="Times New Roman,Times New Roman_MSFontService,sans-serif" font-weight="700" font-size="73" transform="matrix(1 0 0 1 2433.87 1413)">-</text><text font-family="Times New Roman,Times New Roman_MSFontService,sans-serif" font-weight="700" font-size="73" transform="matrix(1 0 0 1 2156.88 1501)">sicherung</text><rect x="2622.5" y="1288.5" width="554" height="284" stroke="#000000" stroke-width="6.875" stroke-miterlimit="8" fill="#FFFFFF"/><text font-family="Times New Roman,Times New Roman_MSFontService,sans-serif" font-weight="700" font-size="73" transform="matrix(1 0 0 1 2654.38 1369)">Kennzeichnung </text><text font-family="Times New Roman,Times New Roman_MSFontService,sans-serif" font-weight="700" font-size="73" transform="matrix(1 0 0 1 2728.42 1457)">Transport</text><text font-family="Times New Roman,Times New Roman_MSFontService,sans-serif" font-weight="700" font-size="73" transform="matrix(1 0 0 1 3044.95 1457)">-</text><text font-family="Times New Roman,Times New Roman_MSFontService,sans-serif" font-weight="700" font-size="73" transform="matrix(1 0 0 1 2713.66 1545)">verpackung</text><path d="M2000.14 971.846 2038.94 972.89 2038.67 983.199 1999.86 982.154ZM2034.07 962.443 2064.58 978.738 2033.23 993.369Z"/><path d="M2555.03 973.844 2593.83 974.069 2593.77 984.382 2554.97 984.156ZM2588.73 963.727 2619.58 979.375 2588.55 994.664Z"/><path d="M0 5.15625-82.5059 5.15625-77.3496 0-77.3496 224.406-82.5059 219.25 2929.76 219.25 2929.76 456.132 2867.88 456.132 2867.88 445.82 2924.6 445.82 2919.44 450.976 2919.44 224.406 2924.6 229.563-87.6621 229.563-87.6621-5.15625 0-5.15625ZM2873.03 466.445 2842.09 450.976 2873.03 435.507Z" transform="matrix(-1 0 0 1 3176.09 979)"/><path d="M2004.04 1423.84 2037.61 1424.08 2037.54 1434.39 2003.96 1434.16ZM2032.53 1413.73 2063.36 1429.42 2032.31 1444.67Z"/><path d="M2557.03 1424.84 2596.66 1425.07 2596.6 1435.38 2556.97 1435.16ZM2591.56 1414.73 2622.41 1430.38 2591.38 1445.67Z"/><path d="M0.0283092-5.15617 687.704-1.38059 687.648 8.93175-0.0283092 5.15617ZM682.605-11.7212 713.457 3.91713 682.435 19.2158Z" transform="matrix(1 0 0 -1 797 1035.92)"/><rect x="1509.5" y="1642.5" width="491" height="289" stroke="#000000" stroke-width="6.875" stroke-miterlimit="8" fill="#FFFFFF"/><text font-family="Times New Roman,Times New Roman_MSFontService,sans-serif" font-weight="700" font-size="73" transform="matrix(1 0 0 1 1536.27 1770)">Bereitstellung </text><text font-family="Times New Roman,Times New Roman_MSFontService,sans-serif" font-weight="700" font-size="73" transform="matrix(1 0 0 1 1625.56 1858)">Paletten</text><path d="M5.15345-0.16992 6.61103 44.0366-3.69587 44.3765-5.15345 0.16992ZM16.748 38.5433 2.30718 69.9738-14.1727 39.5629Z" transform="matrix(1 0 0 -1 1754 1641.97)"/><path d="M3176.02 1424.84 3229.42 1425.04 3229.38 1435.35 3175.98 1435.16ZM3224.3 1414.71 3255.18 1430.29 3224.19 1445.64Z"/><rect x="1509.5" y="516.5" width="493" height="255" stroke="#000000" stroke-width="6.875" stroke-miterlimit="8" fill="#FFFFFF"/><text font-family="Times New Roman,Times New Roman_MSFontService,sans-serif" font-weight="700" font-size="73" transform="matrix(1 0 0 1 1561.74 670)">Palettierung</text><rect x="871.5" y="361.5" width="487" height="255" stroke="#000000" stroke-width="6.875" stroke-miterlimit="8" fill="#FFFFFF"/><text font-family="Times New Roman,Times New Roman_MSFontService,sans-serif" font-weight="700" font-size="73" transform="matrix(1 0 0 1 896.606 472)">Bereitstellung</text><text font-family="Times New Roman,Times New Roman_MSFontService,sans-serif" font-weight="700" font-size="73" transform="matrix(1 0 0 1 985.89 560)">Paletten</text><path d="M1358 483.844 1438.7 483.844 1438.7 643.585 1433.55 638.429 1483.31 638.429 1483.31 648.741 1428.39 648.741 1428.39 489 1433.55 494.156 1358 494.156ZM1478.15 628.116 1509.09 643.585 1478.15 659.054Z"/><path d="M0-5.15625 80.7011-5.15625 80.7011 166.666 75.5449 161.509 125.309 161.509 125.309 171.822 70.3886 171.822 70.3886 0 75.5449 5.15625 0 5.15625ZM120.152 151.197 151.09 166.666 120.152 182.134Z" transform="matrix(1 0 0 -1 1358 809.666)"/><path d="M5.15621-0.0206198 5.30285 36.6479-5.00957 36.6891-5.15621 0.0206198ZM15.5946 31.4504 0.249738 62.4495-15.3426 31.5741Z" transform="matrix(-1 0 0 1 1755.25 771)"/><rect x="334.5" y="1286.5" width="524" height="289" stroke="#000000" stroke-width="6.875" stroke-miterlimit="8" fill="#FFFFFF"/><text font-family="Times New Roman,Times New Roman_MSFontService,sans-serif" font-weight="700" font-size="73" transform="matrix(1 0 0 1 353.462 1369)">Umverpackung </text><text font-family="Times New Roman,Times New Roman_MSFontService,sans-serif" font-weight="700" font-size="73" transform="matrix(1 0 0 1 470.543 1457)">Primär</text><text font-family="Times New Roman,Times New Roman_MSFontService,sans-serif" font-weight="700" font-size="73" transform="matrix(1 0 0 1 696.41 1457)">-</text><text font-family="Times New Roman,Times New Roman_MSFontService,sans-serif" font-weight="700" font-size="73" transform="matrix(1 0 0 1 410.456 1545)">verpackung</text><path d="M0.0740406-5.15572 20.2587-4.86585 20.1106 5.44559-0.0740406 5.15572ZM15.2511-15.2513 45.9633 0.660072 14.8068 15.683Z" transform="matrix(1 0 0 -1 858 1430.66)"/><rect x="334.5" y="1642.5" width="524" height="289" stroke="#000000" stroke-width="6.875" stroke-miterlimit="8" fill="#FFFFFF"/><text font-family="Times New Roman,Times New Roman_MSFontService,sans-serif" font-weight="700" font-size="73" transform="matrix(1 0 0 1 377.903 1726)">Bereitstellung </text><text font-family="Times New Roman,Times New Roman_MSFontService,sans-serif" font-weight="700" font-size="73" transform="matrix(1 0 0 1 432.17 1814)">Sekundär</text><text font-family="Times New Roman,Times New Roman_MSFontService,sans-serif" font-weight="700" font-size="73" transform="matrix(1 0 0 1 734.807 1814)">-</text><text font-family="Times New Roman,Times New Roman_MSFontService,sans-serif" font-weight="700" font-size="73" transform="matrix(1 0 0 1 410.468 1902)">verpackung</text><path d="M5.15625-2.74407e-05 5.15647 42.0322-5.15603 42.0323-5.15625 2.74407e-05ZM15.4689 36.8759 0.000360892 67.8135-15.4686 36.8761Z" transform="matrix(1 0 0 -1 596 1642.81)"/><rect x="904.5" y="1287.5" width="517" height="285" stroke="#000000" stroke-width="6.875" stroke-miterlimit="8" fill="#FFFFFF"/><text font-family="Times New Roman,Times New Roman_MSFontService,sans-serif" font-weight="700" font-size="73" transform="matrix(1 0 0 1 917.837 1369)">Kennzeichnung </text><text font-family="Times New Roman,Times New Roman_MSFontService,sans-serif" font-weight="700" font-size="73" transform="matrix(1 0 0 1 998.847 1457)">Sekundär</text><text font-family="Times New Roman,Times New Roman_MSFontService,sans-serif" font-weight="700" font-size="73" transform="matrix(1 0 0 1 1301.48 1457)">-</text><text font-family="Times New Roman,Times New Roman_MSFontService,sans-serif" font-weight="700" font-size="73" transform="matrix(1 0 0 1 977.145 1545)">verpackung</text><path d="M3255.5 1431C3255.5 1372.18 3371.23 1324.5 3514 1324.5 3656.77 1324.5 3772.5 1372.18 3772.5 1431 3772.5 1489.82 3656.77 1537.5 3514 1537.5 3371.23 1537.5 3255.5 1489.82 3255.5 1431Z" stroke="#000000" stroke-width="6.875" stroke-miterlimit="8" fill="#7F7F7F" fill-rule="evenodd"/><text fill="#FFFFFF" font-family="Times New Roman,Times New Roman_MSFontService,sans-serif" font-weight="700" font-size="73" transform="matrix(1 0 0 1 3333.98 1457)">Weitergabe</text><path d="M280.5 1036C280.5 981.6 396.234 937.5 539 937.5 681.766 937.5 797.5 981.6 797.5 1036 797.5 1090.4 681.766 1134.5 539 1134.5 396.234 1134.5 280.5 1090.4 280.5 1036Z" stroke="#000000" stroke-width="6.875" stroke-miterlimit="8" fill="#7F7F7F" fill-rule="evenodd"/><text fill="#FFFFFF" font-family="Times New Roman,Times New Roman_MSFontService,sans-serif" font-weight="700" font-size="73" transform="matrix(1 0 0 1 359.885 1063)">Produktion</text><path d="M0.0246321-5.15619 62.178-4.85927 62.1287 5.45311-0.0246321 5.15619ZM57.0711-15.1963 87.9343 0.420079 56.9233 15.7409Z" transform="matrix(1 0 0 -1 1421 1429.42)"/></g></svg>