<svg width="2883" height="1920" xmlns="http://www.w3.org/2000/svg" xmlns:xlink="http://www.w3.org/1999/xlink" xml:space="preserve" overflow="hidden"><g transform="translate(-802 -381)"><rect x="863.5" y="383.5" width="2732" height="1884" stroke="#A6A6A6" stroke-width="4.58333" stroke-miterlimit="8" fill="#F2F2F2"/><text font-family="Calibri,Calibri_MSFontService,sans-serif" font-weight="400" font-size="83" transform="matrix(1 0 0 1 2168.11 2229)">LEA</text><rect x="1424" y="901" width="352" height="1274" fill="#D5E8D4"/><rect x="2628" y="901" width="346" height="1274" fill="#D5E8D4"/><rect x="1424" y="417" width="1550" height="484" fill="#D5E8D4"/><text font-family="Calibri,Calibri_MSFontService,sans-serif" font-weight="700" font-size="73" transform="matrix(1 0 0 1 1872.68 512)">Konfigurierbare Logik</text><rect x="805.5" y="623.5" width="573" height="339" stroke="#000000" stroke-width="6.875" stroke-miterlimit="8" fill="#DAE8FC"/><text font-family="Calibri,Calibri_MSFontService,sans-serif" font-weight="700" font-size="73" transform="matrix(1 0 0 1 852.725 730)">Konfigurierbare </text><text font-family="Calibri,Calibri_MSFontService,sans-serif" font-weight="700" font-size="73" transform="matrix(1 0 0 1 848.898 818)">Kommunikation</text><text font-family="Calibri,Calibri_MSFontService,sans-serif" font-weight="700" font-size="73" transform="matrix(1 0 0 1 862.923 906)">(Aktives Lesen)</text><rect x="805.5" y="1179.5" width="573" height="340" stroke="#000000" stroke-width="6.875" stroke-miterlimit="8" fill="#DAE8FC"/><text font-family="Calibri,Calibri_MSFontService,sans-serif" font-weight="700" font-size="73" transform="matrix(1 0 0 1 852.725 1286)">Konfigurierbare </text><text font-family="Calibri,Calibri_MSFontService,sans-serif" font-weight="700" font-size="73" transform="matrix(1 0 0 1 848.898 1374)">Kommunikation</text><text font-family="Calibri,Calibri_MSFontService,sans-serif" font-weight="700" font-size="73" transform="matrix(1 0 0 1 862.923 1462)">(Aktives Lesen)</text><rect x="805.5" y="1735.5" width="573" height="340" stroke="#000000" stroke-width="6.875" stroke-miterlimit="8" fill="#DAE8FC"/><text font-family="Calibri,Calibri_MSFontService,sans-serif" font-weight="700" font-size="73" transform="matrix(1 0 0 1 852.725 1842)">Konfigurierbare </text><text font-family="Calibri,Calibri_MSFontService,sans-serif" font-weight="700" font-size="73" transform="matrix(1 0 0 1 848.898 1930)">Kommunikation </text><text font-family="Calibri,Calibri_MSFontService,sans-serif" font-weight="700" font-size="73" transform="matrix(1 0 0 1 862.923 2018)">(Aktives Lesen)</text><rect x="1471.5" y="577.5" width="248" height="1543" stroke="#000000" stroke-width="6.875" stroke-miterlimit="8" fill="#F5F5F5"/><text font-family="Calibri,Calibri_MSFontService,sans-serif" font-weight="400" font-size="73" transform="matrix(1 0 0 1 1504.68 1330)">Input</text><text font-family="Calibri,Calibri_MSFontService,sans-serif" font-weight="400" font-size="73" transform="matrix(1 0 0 1 1662.81 1330)">-</text><text font-family="Calibri,Calibri_MSFontService,sans-serif" font-weight="400" font-size="73" transform="matrix(1 0 0 1 1526.98 1418)">Liste</text><rect x="2681.5" y="577.5" width="247" height="1543" stroke="#000000" stroke-width="6.875" stroke-miterlimit="8" fill="#F5F5F5"/><text font-family="Calibri,Calibri_MSFontService,sans-serif" font-weight="400" font-size="73" transform="matrix(1 0 0 1 2686.71 1330)">Output</text><text font-family="Calibri,Calibri_MSFontService,sans-serif" font-weight="400" font-size="73" transform="matrix(1 0 0 1 2899.83 1330)">-</text><text font-family="Calibri,Calibri_MSFontService,sans-serif" font-weight="400" font-size="73" transform="matrix(1 0 0 1 2736.51 1418)">Liste</text><rect x="3020.5" y="623.5" width="655" height="339" stroke="#000000" stroke-width="6.875" stroke-miterlimit="8" fill="#DAE8FC"/><text font-family="Calibri,Calibri_MSFontService,sans-serif" font-weight="700" font-size="73" transform="matrix(1 0 0 1 3108.56 730)">Konfigurierbare </text><text font-family="Calibri,Calibri_MSFontService,sans-serif" font-weight="700" font-size="73" transform="matrix(1 0 0 1 3104.73 818)">Kommunikation</text><text font-family="Calibri,Calibri_MSFontService,sans-serif" font-weight="700" font-size="73" transform="matrix(1 0 0 1 3054.73 906)">(Aktives Schreiben)</text><rect x="3020.5" y="1179.5" width="655" height="340" stroke="#000000" stroke-width="6.875" stroke-miterlimit="8" fill="#DAE8FC"/><text font-family="Calibri,Calibri_MSFontService,sans-serif" font-weight="700" font-size="73" transform="matrix(1 0 0 1 3108.56 1286)">Konfigurierbare </text><text font-family="Calibri,Calibri_MSFontService,sans-serif" font-weight="700" font-size="73" transform="matrix(1 0 0 1 3104.73 1374)">Kommunikation</text><text font-family="Calibri,Calibri_MSFontService,sans-serif" font-weight="700" font-size="73" transform="matrix(1 0 0 1 3054.73 1462)">(Aktives Schreiben)</text><rect x="3020.5" y="1735.5" width="655" height="340" stroke="#000000" stroke-width="6.875" stroke-miterlimit="8" fill="#DAE8FC"/><text font-family="Calibri,Calibri_MSFontService,sans-serif" font-weight="700" font-size="73" transform="matrix(1 0 0 1 3108.56 1842)">Konfigurierbare </text><text font-family="Calibri,Calibri_MSFontService,sans-serif" font-weight="700" font-size="73" transform="matrix(1 0 0 1 3104.73 1930)">Kommunikation</text><text font-family="Calibri,Calibri_MSFontService,sans-serif" font-weight="700" font-size="73" transform="matrix(1 0 0 1 3054.73 2018)">(Aktives Schreiben)</text><rect x="1805.5" y="577.5" width="790" height="207" stroke="#000000" stroke-width="6.875" stroke-miterlimit="8" fill="#F5F5F5"/><text font-family="Calibri,Calibri_MSFontService,sans-serif" font-weight="400" font-size="73" transform="matrix(1 0 0 1 2045.14 706)">Logic</text><text font-family="Calibri,Calibri_MSFontService,sans-serif" font-weight="400" font-size="73" transform="matrix(1 0 0 1 2196.96 706)">-</text><text font-family="Calibri,Calibri_MSFontService,sans-serif" font-weight="400" font-size="73" transform="matrix(1 0 0 1 2219.31 706)">Liste</text><rect x="1804.5" y="934.5" width="790" height="1186" stroke="#000000" stroke-width="6.875" stroke-miterlimit="8" fill="#FFE6CC"/><text font-family="Calibri,Calibri_MSFontService,sans-serif" font-weight="700" font-size="73" transform="matrix(1 0 0 1 2035.91 1055)">LEA</text><text font-family="Calibri,Calibri_MSFontService,sans-serif" font-weight="700" font-size="73" transform="matrix(1 0 0 1 2146.16 1055)">-</text><text font-family="Calibri,Calibri_MSFontService,sans-serif" font-weight="700" font-size="73" transform="matrix(1 0 0 1 2168.5 1055)">Dienst</text><path d="M1.44584e-05-3.4375 78.9963-3.43717 78.9963 3.43783-1.44584e-05 3.4375ZM53.2284-19.0107 85.8185 0.000361217 53.2283 19.0111C51.5884 19.9677 49.4835 19.4138 48.527 17.7739 47.5704 16.1341 48.1243 14.0292 49.7642 13.0726L77.2642-2.96891 77.2642 2.96956 49.7643-13.0722C48.1244-14.0288 47.5705-16.1337 48.5271-17.7735 49.4837-19.4134 51.5886-19.9673 53.2284-19.0107Z" transform="matrix(-1 0 0 1 1805.3 985.5)"/><path d="M1.44584e-05-3.4375 78.9963-3.43717 78.9963 3.43783-1.44584e-05 3.4375ZM53.2284-19.0107 85.8185 0.000361217 53.2283 19.0111C51.5884 19.9677 49.4835 19.4138 48.527 17.7739 47.5704 16.1341 48.1243 14.0292 49.7642 13.0726L77.2642-2.96891 77.2642 2.96956 49.7643-13.0722C48.1244-14.0288 47.5705-16.1337 48.5271-17.7735 49.4837-19.4134 51.5886-19.9673 53.2284-19.0107Z" transform="matrix(-1 0 0 1 1805.3 1092.5)"/><path d="M1.44584e-05-3.4375 78.9963-3.43717 78.9963 3.43783-1.44584e-05 3.4375ZM53.2284-19.0107 85.8185 0.000361217 53.2283 19.0111C51.5884 19.9677 49.4835 19.4138 48.527 17.7739 47.5704 16.1341 48.1243 14.0292 49.7642 13.0726L77.2642-2.96891 77.2642 2.96956 49.7643-13.0722C48.1244-14.0288 47.5705-16.1337 48.5271-17.7735 49.4837-19.4134 51.5886-19.9673 53.2284-19.0107Z" transform="matrix(-1 0 0 1 1805.3 1199.5)"/><path d="M1.44584e-05-3.4375 78.9963-3.43717 78.9963 3.43783-1.44584e-05 3.4375ZM53.2284-19.0107 85.8185 0.000361217 53.2283 19.0111C51.5884 19.9677 49.4835 19.4138 48.527 17.7739 47.5704 16.1341 48.1243 14.0292 49.7642 13.0726L77.2642-2.96891 77.2642 2.96956 49.7643-13.0722C48.1244-14.0288 47.5705-16.1337 48.5271-17.7735 49.4837-19.4134 51.5886-19.9673 53.2284-19.0107Z" transform="matrix(-1 0 0 1 1805.3 1307.5)"/><path d="M1.44584e-05-3.4375 78.9963-3.43717 78.9963 3.43783-1.44584e-05 3.4375ZM53.2284-19.0107 85.8185 0.000361217 53.2283 19.0111C51.5884 19.9677 49.4835 19.4138 48.527 17.7739 47.5704 16.1341 48.1243 14.0292 49.7642 13.0726L77.2642-2.96891 77.2642 2.96956 49.7643-13.0722C48.1244-14.0288 47.5705-16.1337 48.5271-17.7735 49.4837-19.4134 51.5886-19.9673 53.2284-19.0107Z" transform="matrix(-1 0 0 1 1805.3 1413.5)"/><path d="M1.44584e-05-3.4375 78.9963-3.43717 78.9963 3.43783-1.44584e-05 3.4375ZM53.2284-19.0107 85.8185 0.000361217 53.2283 19.0111C51.5884 19.9677 49.4835 19.4138 48.527 17.7739 47.5704 16.1341 48.1243 14.0292 49.7642 13.0726L77.2642-2.96891 77.2642 2.96956 49.7643-13.0722C48.1244-14.0288 47.5705-16.1337 48.5271-17.7735 49.4837-19.4134 51.5886-19.9673 53.2284-19.0107Z" transform="matrix(-1 0 0 1 1805.3 1519.5)"/><path d="M1.44584e-05-3.4375 78.9963-3.43717 78.9963 3.43783-1.44584e-05 3.4375ZM53.2284-19.0107 85.8185 0.000361217 53.2283 19.0111C51.5884 19.9677 49.4835 19.4138 48.527 17.7739 47.5704 16.1341 48.1243 14.0292 49.7642 13.0726L77.2642-2.96891 77.2642 2.96956 49.7643-13.0722C48.1244-14.0288 47.5705-16.1337 48.5271-17.7735 49.4837-19.4134 51.5886-19.9673 53.2284-19.0107Z" transform="matrix(-1 0 0 1 1805.3 2053.5)"/><path d="M1.44584e-05-3.4375 78.9963-3.43717 78.9963 3.43783-1.44584e-05 3.4375ZM53.2284-19.0107 85.8185 0.000361217 53.2283 19.0111C51.5884 19.9677 49.4835 19.4138 48.527 17.7739 47.5704 16.1341 48.1243 14.0292 49.7642 13.0726L77.2642-2.96891 77.2642 2.96956 49.7643-13.0722C48.1244-14.0288 47.5705-16.1337 48.5271-17.7735 49.4837-19.4134 51.5886-19.9673 53.2284-19.0107Z" transform="matrix(-1 0 0 1 1805.3 1841.5)"/><path d="M1.44584e-05-3.4375 78.9963-3.43717 78.9963 3.43783-1.44584e-05 3.4375ZM53.2284-19.0107 85.8185 0.000361217 53.2283 19.0111C51.5884 19.9677 49.4835 19.4138 48.527 17.7739 47.5704 16.1341 48.1243 14.0292 49.7642 13.0726L77.2642-2.96891 77.2642 2.96956 49.7643-13.0722C48.1244-14.0288 47.5705-16.1337 48.5271-17.7735 49.4837-19.4134 51.5886-19.9673 53.2284-19.0107Z" transform="matrix(-1 0 0 1 1805.3 1946.5)"/><path d="M1.44584e-05-3.4375 78.9963-3.43717 78.9963 3.43783-1.44584e-05 3.4375ZM53.2284-19.0107 85.8185 0.000361217 53.2283 19.0111C51.5884 19.9677 49.4835 19.4138 48.527 17.7739 47.5704 16.1341 48.1243 14.0292 49.7642 13.0726L77.2642-2.96891 77.2642 2.96956 49.7643-13.0722C48.1244-14.0288 47.5705-16.1337 48.5271-17.7735 49.4837-19.4134 51.5886-19.9673 53.2284-19.0107Z" transform="matrix(-1 0 0 1 1805.3 1735.5)"/><path d="M1.44584e-05-3.4375 78.9963-3.43717 78.9963 3.43783-1.44584e-05 3.4375ZM53.2284-19.0107 85.8185 0.000361217 53.2283 19.0111C51.5884 19.9677 49.4835 19.4138 48.527 17.7739 47.5704 16.1341 48.1243 14.0292 49.7642 13.0726L77.2642-2.96891 77.2642 2.96956 49.7643-13.0722C48.1244-14.0288 47.5705-16.1337 48.5271-17.7735 49.4837-19.4134 51.5886-19.9673 53.2284-19.0107Z" transform="matrix(-1 0 0 1 1805.3 1627.5)"/><path d="M1.44584e-05-3.4375 78.9963-3.43717 78.9963 3.43783-1.44584e-05 3.4375ZM53.2284-19.0107 85.8185 0.000361217 53.2283 19.0111C51.5884 19.9677 49.4835 19.4138 48.527 17.7739 47.5704 16.1341 48.1243 14.0292 49.7642 13.0726L77.2642-2.96891 77.2642 2.96956 49.7643-13.0722C48.1244-14.0288 47.5705-16.1337 48.5271-17.7735 49.4837-19.4134 51.5886-19.9673 53.2284-19.0107Z" transform="matrix(-1 0 0 1 2681.3 985.5)"/><path d="M1.44584e-05-3.4375 78.9963-3.43717 78.9963 3.43783-1.44584e-05 3.4375ZM53.2284-19.0107 85.8185 0.000361217 53.2283 19.0111C51.5884 19.9677 49.4835 19.4138 48.527 17.7739 47.5704 16.1341 48.1243 14.0292 49.7642 13.0726L77.2642-2.96891 77.2642 2.96956 49.7643-13.0722C48.1244-14.0288 47.5705-16.1337 48.5271-17.7735 49.4837-19.4134 51.5886-19.9673 53.2284-19.0107Z" transform="matrix(-1 0 0 1 2681.3 1092.5)"/><path d="M1.44584e-05-3.4375 78.9963-3.43717 78.9963 3.43783-1.44584e-05 3.4375ZM53.2284-19.0107 85.8185 0.000361217 53.2283 19.0111C51.5884 19.9677 49.4835 19.4138 48.527 17.7739 47.5704 16.1341 48.1243 14.0292 49.7642 13.0726L77.2642-2.96891 77.2642 2.96956 49.7643-13.0722C48.1244-14.0288 47.5705-16.1337 48.5271-17.7735 49.4837-19.4134 51.5886-19.9673 53.2284-19.0107Z" transform="matrix(-1 0 0 1 2681.3 1199.5)"/><path d="M1.44584e-05-3.4375 78.9963-3.43717 78.9963 3.43783-1.44584e-05 3.4375ZM53.2284-19.0107 85.8185 0.000361217 53.2283 19.0111C51.5884 19.9677 49.4835 19.4138 48.527 17.7739 47.5704 16.1341 48.1243 14.0292 49.7642 13.0726L77.2642-2.96891 77.2642 2.96956 49.7643-13.0722C48.1244-14.0288 47.5705-16.1337 48.5271-17.7735 49.4837-19.4134 51.5886-19.9673 53.2284-19.0107Z" transform="matrix(-1 0 0 1 2681.3 1307.5)"/><path d="M1.44584e-05-3.4375 78.9963-3.43717 78.9963 3.43783-1.44584e-05 3.4375ZM53.2284-19.0107 85.8185 0.000361217 53.2283 19.0111C51.5884 19.9677 49.4835 19.4138 48.527 17.7739 47.5704 16.1341 48.1243 14.0292 49.7642 13.0726L77.2642-2.96891 77.2642 2.96956 49.7643-13.0722C48.1244-14.0288 47.5705-16.1337 48.5271-17.7735 49.4837-19.4134 51.5886-19.9673 53.2284-19.0107Z" transform="matrix(-1 0 0 1 2681.3 1413.5)"/><path d="M1.44584e-05-3.4375 78.9963-3.43717 78.9963 3.43783-1.44584e-05 3.4375ZM53.2284-19.0107 85.8185 0.000361217 53.2283 19.0111C51.5884 19.9677 49.4835 19.4138 48.527 17.7739 47.5704 16.1341 48.1243 14.0292 49.7642 13.0726L77.2642-2.96891 77.2642 2.96956 49.7643-13.0722C48.1244-14.0288 47.5705-16.1337 48.5271-17.7735 49.4837-19.4134 51.5886-19.9673 53.2284-19.0107Z" transform="matrix(-1 0 0 1 2681.3 1519.5)"/><path d="M1.44584e-05-3.4375 78.9963-3.43717 78.9963 3.43783-1.44584e-05 3.4375ZM53.2284-19.0107 85.8185 0.000361217 53.2283 19.0111C51.5884 19.9677 49.4835 19.4138 48.527 17.7739 47.5704 16.1341 48.1243 14.0292 49.7642 13.0726L77.2642-2.96891 77.2642 2.96956 49.7643-13.0722C48.1244-14.0288 47.5705-16.1337 48.5271-17.7735 49.4837-19.4134 51.5886-19.9673 53.2284-19.0107Z" transform="matrix(-1 0 0 1 2681.3 2053.5)"/><path d="M1.44584e-05-3.4375 78.9963-3.43717 78.9963 3.43783-1.44584e-05 3.4375ZM53.2284-19.0107 85.8185 0.000361217 53.2283 19.0111C51.5884 19.9677 49.4835 19.4138 48.527 17.7739 47.5704 16.1341 48.1243 14.0292 49.7642 13.0726L77.2642-2.96891 77.2642 2.96956 49.7643-13.0722C48.1244-14.0288 47.5705-16.1337 48.5271-17.7735 49.4837-19.4134 51.5886-19.9673 53.2284-19.0107Z" transform="matrix(-1 0 0 1 2681.3 1841.5)"/><path d="M1.44584e-05-3.4375 78.9963-3.43717 78.9963 3.43783-1.44584e-05 3.4375ZM53.2284-19.0107 85.8185 0.000361217 53.2283 19.0111C51.5884 19.9677 49.4835 19.4138 48.527 17.7739 47.5704 16.1341 48.1243 14.0292 49.7642 13.0726L77.2642-2.96891 77.2642 2.96956 49.7643-13.0722C48.1244-14.0288 47.5705-16.1337 48.5271-17.7735 49.4837-19.4134 51.5886-19.9673 53.2284-19.0107Z" transform="matrix(-1 0 0 1 2681.3 1946.5)"/><path d="M1.44584e-05-3.4375 78.9963-3.43717 78.9963 3.43783-1.44584e-05 3.4375ZM53.2284-19.0107 85.8185 0.000361217 53.2283 19.0111C51.5884 19.9677 49.4835 19.4138 48.527 17.7739 47.5704 16.1341 48.1243 14.0292 49.7642 13.0726L77.2642-2.96891 77.2642 2.96956 49.7643-13.0722C48.1244-14.0288 47.5705-16.1337 48.5271-17.7735 49.4837-19.4134 51.5886-19.9673 53.2284-19.0107Z" transform="matrix(-1 0 0 1 2681.3 1735.5)"/><path d="M1.44584e-05-3.4375 78.9963-3.43717 78.9963 3.43783-1.44584e-05 3.4375ZM53.2284-19.0107 85.8185 0.000361217 53.2283 19.0111C51.5884 19.9677 49.4835 19.4138 48.527 17.7739 47.5704 16.1341 48.1243 14.0292 49.7642 13.0726L77.2642-2.96891 77.2642 2.96956 49.7643-13.0722C48.1244-14.0288 47.5705-16.1337 48.5271-17.7735 49.4837-19.4134 51.5886-19.9673 53.2284-19.0107Z" transform="matrix(-1 0 0 1 2681.3 1627.5)"/><path d="M1378.5 790.062 1464.58 790.063 1464.58 796.938 1378.5 796.937ZM1438.81 774.489 1471.4 793.5 1438.81 812.511C1437.17 813.468 1435.07 812.914 1434.11 811.274 1433.16 809.634 1433.71 807.529 1435.35 806.573L1462.85 790.531 1462.85 796.469 1435.35 780.428C1433.71 779.471 1433.16 777.366 1434.11 775.726 1435.07 774.086 1437.17 773.533 1438.81 774.489Z"/><path d="M1378.5 1346.06 1464.58 1346.06 1464.58 1352.94 1378.5 1352.94ZM1438.81 1330.49 1471.4 1349.5 1438.81 1368.51C1437.17 1369.47 1435.07 1368.91 1434.11 1367.27 1433.16 1365.63 1433.71 1363.53 1435.35 1362.57L1462.85 1346.53 1462.85 1352.47 1435.35 1336.43C1433.71 1335.47 1433.16 1333.37 1434.11 1331.73 1435.07 1330.09 1437.17 1329.53 1438.81 1330.49Z"/><path d="M1378.5 1902.06 1464.58 1902.06 1464.58 1908.94 1378.5 1908.94ZM1438.81 1886.49 1471.4 1905.5 1438.81 1924.51C1437.17 1925.47 1435.07 1924.91 1434.11 1923.27 1433.16 1921.63 1433.71 1919.53 1435.35 1918.57L1462.85 1902.53 1462.85 1908.47 1435.35 1892.43C1433.71 1891.47 1433.16 1889.37 1434.11 1887.73 1435.07 1886.09 1437.17 1885.53 1438.81 1886.49Z"/><path d="M2928.5 790.062 3013.6 790.063 3013.6 796.938 2928.5 796.937ZM2987.83 774.489 3020.42 793.5 2987.83 812.511C2986.19 813.468 2984.09 812.914 2983.13 811.274 2982.17 809.634 2982.73 807.529 2984.37 806.573L3011.87 790.531 3011.87 796.469 2984.37 780.428C2982.73 779.471 2982.17 777.366 2983.13 775.726 2984.09 774.086 2986.19 773.533 2987.83 774.489Z"/><path d="M2928.5 1346.06 3013.6 1346.06 3013.6 1352.94 2928.5 1352.94ZM2987.83 1330.49 3020.42 1349.5 2987.83 1368.51C2986.19 1369.47 2984.09 1368.91 2983.13 1367.27 2982.17 1365.63 2982.73 1363.53 2984.37 1362.57L3011.87 1346.53 3011.87 1352.47 2984.37 1336.43C2982.73 1335.47 2982.17 1333.37 2983.13 1331.73 2984.09 1330.09 2986.19 1329.53 2987.83 1330.49Z"/><path d="M2928.5 1902.06 3013.6 1902.06 3013.6 1908.94 2928.5 1908.94ZM2987.83 1886.49 3020.42 1905.5 2987.83 1924.51C2986.19 1925.47 2984.09 1924.91 2983.13 1923.27 2982.17 1921.63 2982.73 1919.53 2984.37 1918.57L3011.87 1902.53 3011.87 1908.47 2984.37 1892.43C2982.73 1891.47 2982.17 1889.37 2983.13 1887.73 2984.09 1886.09 2986.19 1885.53 2987.83 1886.49Z"/><path d="M1719.5 837.5 2631.94 837.5 2631.94 827.5 2672.5 847.5 2631.94 867.5 2631.94 857.5 1719.5 857.5Z" stroke="#000000" stroke-width="6.875" stroke-miterlimit="8" fill="none" fill-rule="evenodd"/><path d="M1718.5 669.75 1755.93 669.75 1755.93 659.5 1797.5 680 1755.93 700.5 1755.93 690.25 1718.5 690.25Z" stroke="#000000" stroke-width="6.875" stroke-miterlimit="8" fill="none" fill-rule="evenodd"/><path d="M2596.5 672.5 2631.94 672.5 2631.94 662.5 2672.5 682.5 2631.94 702.5 2631.94 692.5 2596.5 692.5Z" stroke="#000000" stroke-width="6.875" stroke-miterlimit="8" fill="none" fill-rule="evenodd"/><rect x="1844" y="1144" width="712" height="187" fill="#FFF5EB"/><text font-family="Calibri,Calibri_MSFontService,sans-serif" font-weight="400" font-size="73" transform="matrix(1 0 0 1 1940.88 1263)">Zustandsautomat</text><rect x="1844" y="1361" width="712" height="187" fill="#FFF5EB"/><text font-family="Calibri,Calibri_MSFontService,sans-serif" font-weight="400" font-size="73" transform="matrix(1 0 0 1 1920.49 1480)">Dienste</text><text font-family="Calibri,Calibri_MSFontService,sans-serif" font-weight="400" font-size="73" transform="matrix(1 0 0 1 2145.76 1480)">-</text><text font-family="Calibri,Calibri_MSFontService,sans-serif" font-weight="400" font-size="73" transform="matrix(1 0 0 1 2168.1 1480)">Parameter</text><rect x="1844" y="1581" width="712" height="187" fill="#FFF5EB"/><text font-family="Calibri,Calibri_MSFontService,sans-serif" font-weight="400" font-size="73" transform="matrix(1 0 0 1 2001.7 1699)">Prozesswerte</text><rect x="1844" y="1800" width="712" height="186" fill="#FFF5EB"/><text font-family="Calibri,Calibri_MSFontService,sans-serif" font-weight="400" font-size="73" transform="matrix(1 0 0 1 2010.86 1918)">Reportwerte</text></g></svg>