<svg width="2120" height="1052" xmlns="http://www.w3.org/2000/svg" xmlns:xlink="http://www.w3.org/1999/xlink" xml:space="preserve" overflow="hidden"><defs><clipPath id="clip0"><rect x="1138" y="597" width="2120" height="1052"/></clipPath></defs><g clip-path="url(#clip0)" transform="translate(-1138 -597)"><rect x="1142" y="606" width="2116" height="1043" fill="#F2F2F2"/><text fill="#695C5D" font-family="Calibri,Calibri_MSFontService,sans-serif" font-weight="700" font-size="83" transform="matrix(1 0 0 1 1931.59 699)">Composed</text><text fill="#695C5D" font-family="Calibri,Calibri_MSFontService,sans-serif" font-weight="700" font-size="83" transform="matrix(1 0 0 1 2311.43 699)">MTP</text><rect x="1362.5" y="771.5" width="1550" height="440" stroke="#695C5D" stroke-width="6.875" stroke-linecap="square" stroke-miterlimit="8" stroke-dasharray="20.625 6.875" fill="#D9D9D9"/><text fill="#695C5D" font-family="Calibri,Calibri_MSFontService,sans-serif" font-weight="400" font-size="83" transform="matrix(1 0 0 1 1848.43 974)">Semantic</text><text fill="#695C5D" font-family="Calibri,Calibri_MSFontService,sans-serif" font-weight="400" font-size="83" transform="matrix(1 0 0 1 2175.95 974)">Models</text><text fill="#695C5D" font-family="Calibri,Calibri_MSFontService,sans-serif" font-weight="400" font-size="73" transform="matrix(1 0 0 1 1659.27 1065)">(</text><text fill="#695C5D" font-family="Calibri,Calibri_MSFontService,sans-serif" font-weight="400" font-size="73" transform="matrix(1 0 0 1 1681.62 1065)">Aspects</text><text fill="#695C5D" font-family="Calibri,Calibri_MSFontService,sans-serif" font-weight="400" font-size="73" transform="matrix(1 0 0 1 1928.55 1065)">of</text><text fill="#695C5D" font-family="Calibri,Calibri_MSFontService,sans-serif" font-weight="400" font-size="73" transform="matrix(1 0 0 1 2006.46 1065)">the</text><text fill="#695C5D" font-family="Calibri,Calibri_MSFontService,sans-serif" font-weight="400" font-size="73" transform="matrix(1 0 0 1 2122.76 1065)">Composed</text><text fill="#695C5D" font-family="Calibri,Calibri_MSFontService,sans-serif" font-weight="400" font-size="73" transform="matrix(1 0 0 1 2456.77 1065)">MTP</text><text fill="#695C5D" font-family="Calibri,Calibri_MSFontService,sans-serif" font-weight="400" font-size="73" transform="matrix(1 0 0 1 2592.56 1065)">)</text><rect x="1359" y="1244" width="976" height="96.9999" fill="#695C5D"/><text fill="#FFFFFF" font-family="Calibri,Calibri_MSFontService,sans-serif" font-weight="400" font-size="73" transform="matrix(1 0 0 1 1391.59 1318)">Attachments</text><rect x="1537" y="1374" width="1375" height="98" fill="#A79B9C"/><text fill="#FFFFFF" font-family="Calibri,Calibri_MSFontService,sans-serif" font-weight="400" font-size="73" transform="matrix(1 0 0 1 1569.76 1448)">LEA1MTP</text><rect x="1537" y="1490" width="1375" height="98" fill="#A79B9C"/><text fill="#FFFFFF" font-family="Calibri,Calibri_MSFontService,sans-serif" font-weight="400" font-size="73" transform="matrix(1 0 0 1 1569.76 1564)">LEA2MTP</text><path d="M2962.5 1236.5C2982.66 1236.5 2999 1252.77 2999 1272.83L2999 1376.17C2999 1396.23 3015.34 1412.5 3035.5 1412.5 3015.34 1412.5 2999 1428.77 2999 1448.83L2999 1552.17C2999 1572.23 2982.66 1588.5 2962.5 1588.5" stroke="#695C5D" stroke-width="6.875" stroke-miterlimit="8" fill="none" fill-rule="evenodd"/><text fill="#695C5D" font-family="Calibri,Calibri_MSFontService,sans-serif" font-weight="400" font-size="83" transform="matrix(6.12323e-17 1 -1 6.12323e-17 3076.55 1250)">LEA</text><text fill="#695C5D" font-family="Calibri,Calibri_MSFontService,sans-serif" font-weight="400" font-size="83" transform="matrix(6.12323e-17 1 -1 6.12323e-17 3076.55 1390)">MTPs</text><path d="M1362.5 994.937 1280 994.937 1283.44 991.5 1283.44 1423.53 1280 1420.09 1529.96 1420.09 1529.96 1426.97 1276.56 1426.97 1276.56 988.062 1362.5 988.062ZM1504.19 1404.52 1536.78 1423.53 1504.19 1442.54C1502.55 1443.5 1500.44 1442.94 1499.49 1441.3 1498.53 1439.66 1499.09 1437.56 1500.73 1436.6L1528.23 1420.56 1528.23 1426.5 1500.73 1410.46C1499.09 1409.5 1498.53 1407.39 1499.49 1405.75 1500.44 1404.11 1502.55 1403.56 1504.19 1404.52Z" fill="#695C5D"/><path d="M1362.5 994.937 1280 994.937 1283.44 991.5 1283.44 1539.82 1280 1536.39 1529.96 1536.39 1529.96 1543.26 1276.56 1543.26 1276.56 988.062 1362.5 988.062ZM1504.19 1520.81 1536.78 1539.82 1504.19 1558.83C1502.55 1559.79 1500.44 1559.24 1499.49 1557.6 1498.53 1555.96 1499.09 1553.85 1500.73 1552.9L1528.23 1536.85 1528.23 1542.79 1500.73 1526.75C1499.09 1525.79 1498.53 1523.69 1499.49 1522.05 1500.44 1520.41 1502.55 1519.86 1504.19 1520.81Z" fill="#695C5D"/><text fill="#695C5D" font-family="Calibri,Calibri_MSFontService,sans-serif" font-weight="400" font-size="83" transform="matrix(-1.83697e-16 -1 1 -1.83697e-16 1239.85 1450)">Referen</text><text fill="#695C5D" font-family="Calibri,Calibri_MSFontService,sans-serif" font-weight="400" font-size="83" transform="matrix(-1.83697e-16 -1 1 -1.83697e-16 1239.85 1189)">c</text><text fill="#695C5D" font-family="Calibri,Calibri_MSFontService,sans-serif" font-weight="400" font-size="83" transform="matrix(-1.83697e-16 -1 1 -1.83697e-16 1239.85 1154)">e</text><text fill="#695C5D" font-family="Calibri,Calibri_MSFontService,sans-serif" font-weight="400" font-size="83" transform="matrix(-1.83697e-16 -1 1 -1.83697e-16 1239.85 1113)">s</text></g></svg>